<svg width="46" height="45" viewBox="0 0 46 45" fill="none" xmlns="http://www.w3.org/2000/svg">
<path d="M37.0625 12.6489H35.6562V12.1282C36.4385 11.3472 37.0625 10.141 37.0625 8.83065C37.0625 5.76739 34.54 3.27686 31.4375 3.27686C30.0049 3.27686 28.7041 3.8062 27.7109 4.67398C26.6211 3.79752 25.2324 3.27686 23.7207 3.27686C22.332 3.27686 21.0488 3.71942 20.0029 4.46572C19.1328 3.7281 17.9902 3.27686 16.751 3.27686C15.248 3.27686 13.9033 3.93637 12.9893 4.96903C11.9609 3.92769 10.5283 3.27686 8.9375 3.27686C5.83496 3.27686 3.3125 5.76739 3.3125 8.83065C3.3125 10.2365 3.84863 11.5208 4.71875 12.5014V17.2481C4.71875 19.5477 6.6084 21.4135 8.9375 21.4135V36.5563C8.9375 39.6195 11.4687 42.1534 14.5801 42.1534H30.0312C33.1338 42.1534 35.665 39.6195 35.665 36.5563V32.7814H37.0713C41.4658 32.7814 42.6963 29.9438 42.6963 26.8805V18.5498C42.6875 15.4865 41.1934 12.6489 37.0625 12.6489ZM31.4375 17.1614H13.1562V12.5014C13.1826 12.4667 13.2178 12.4319 13.2441 12.3972C13.3496 12.2671 13.4551 12.1369 13.5518 11.9981C13.6836 12.1022 13.8154 12.2063 13.9561 12.2931C14.7559 12.8224 15.7139 13.1348 16.7422 13.1348C17.3047 13.1348 17.8496 13.0394 18.3506 12.8745C19.4756 14.6274 21.4531 15.7989 23.7119 15.7989C25.6455 15.7989 27.377 14.9398 28.5371 13.5948C29.0381 13.0134 29.4336 12.3452 29.6885 11.6076H31.4375V17.1614ZM8.9375 11.6162V18.1246C8.14648 18.1246 7.53125 17.4998 7.53125 16.7361V11.2431C6.82812 10.8526 6.35352 10.1931 6.18652 9.42074C6.14258 9.23851 6.125 9.03892 6.125 8.83933C6.125 7.31204 7.39062 6.06243 8.9375 6.06243C9.97461 6.06243 10.9854 6.73062 11.583 7.39881C12.1807 8.06701 13.9297 8.06701 14.5625 7.39881C15.1602 6.76533 15.8193 6.06243 16.7422 6.06243C17.2695 6.06243 17.7617 6.25334 18.1396 6.56575C18.3066 6.70459 18.4561 6.86947 18.5703 7.0517C18.667 7.2079 18.7461 7.41617 18.8428 7.55502C19.0801 7.85006 19.4141 8.0323 19.8271 8.0323C20.2139 8.0323 20.5566 7.86742 20.7939 7.5984C20.8467 7.53766 20.8994 7.46824 20.9434 7.39881C21.1191 7.18187 21.3125 6.98228 21.5322 6.80872C22.1299 6.34012 22.8945 6.06243 23.7119 6.06243C24.6436 6.06243 25.4873 6.41822 26.1201 7.00831C26.2695 7.14716 26.709 7.39881 27.2803 7.45088C27.6758 7.48559 27.8164 7.47691 28.001 7.45088C28.9062 7.33807 29.2666 7.04302 29.4424 6.87815C29.9521 6.37483 30.6553 6.06243 31.4287 6.06243C32.9756 6.06243 34.2412 7.31204 34.2412 8.83933C34.2588 9.10834 34.2148 9.37735 34.1357 9.62901C33.916 9.15173 33.4238 8.83065 32.8525 8.83065H28.0186C28.0186 8.83065 27.2539 8.76991 27.2539 9.54223C27.2539 10.3146 26.999 11.0261 26.5684 11.5989C25.9268 12.458 24.8896 13.022 23.7207 13.022C22.4111 13.022 21.2686 12.3191 20.6621 11.2691C20.5215 11.0348 20.416 10.7832 20.3369 10.5228C20.3281 10.4708 20.3105 10.4274 20.3018 10.384C20.126 9.87199 19.6426 9.49884 19.0625 9.49884C18.7197 9.49884 18.4033 9.62901 18.166 9.84596L18.1572 9.85463C17.9463 10.0369 17.6914 10.1757 17.4189 10.2625C17.208 10.3319 16.9795 10.3666 16.7422 10.3666C16.083 10.3666 15.4502 10.0195 15.0898 9.62033C14.2109 8.63106 13.0068 9.03024 12.4795 9.14305C11.9521 9.25587 11.4072 10.1584 11.4072 10.1584C11.3105 10.3406 11.1963 10.5055 11.0645 10.6617C10.5371 11.2431 9.72852 11.6162 8.9375 11.6162ZM38.4687 26.8805C38.4687 28.4165 37.915 28.9632 36.3594 28.9632H35.6562V16.4671H36.3594C37.915 16.4671 38.4687 17.0138 38.4687 18.5498V26.8805Z" fill="#D66905"/>
</svg>
