<svg width="16" height="16" viewBox="0 0 16 16" fill="none" xmlns="http://www.w3.org/2000/svg">
<path d="M6.35547 3.89063C6.64844 3.59766 7.12891 3.59766 7.42187 3.89063L11.1484 7.62891C11.4336 7.91406 11.4414 8.375 11.1719 8.66797L7.5 12.3516C7.35156 12.5 7.16016 12.5742 6.96484 12.5742C6.77344 12.5742 6.57812 12.5 6.43359 12.3555C6.14062 12.0625 6.13672 11.5859 6.43359 11.2891L9.55469 8.12109L6.35547 4.95313C6.05859 4.66406 6.05859 4.1875 6.35547 3.89063Z" fill="white"/>
<path d="M0 8C0 12.4192 3.58077 16 8 16C12.4192 16 16 12.4192 16 8C16 3.58077 12.4192 0 8 0C3.58077 0 0 3.58077 0 8ZM1.23077 8C1.23077 6.19231 1.93462 4.49231 3.21538 3.21538C4.49231 1.93462 6.19231 1.23077 8 1.23077C9.80769 1.23077 11.5077 1.93462 12.7846 3.21538C14.0654 4.49231 14.7692 6.19231 14.7692 8C14.7692 9.80769 14.0654 11.5077 12.7846 12.7846C11.5077 14.0654 9.80769 14.7692 8 14.7692C6.19231 14.7692 4.49231 14.0654 3.21538 12.7846C1.93462 11.5077 1.23077 9.80769 1.23077 8Z" fill="white"/>
</svg>
