<svg width="13" height="14" viewBox="0 0 13 14" fill="none" xmlns="http://www.w3.org/2000/svg">
<path d="M6.49414 0.90625C3.13086 0.90625 0.40625 3.63672 0.40625 7C0.40625 10.3633 3.13086 13.0938 6.49414 13.0938C9.86328 13.0938 12.5938 10.3633 12.5938 7C12.5938 3.63672 9.86328 0.90625 6.49414 0.90625ZM6.5 11.875C3.80762 11.875 1.625 9.69238 1.625 7C1.625 4.30762 3.80762 2.125 6.5 2.125C9.19238 2.125 11.375 4.30762 11.375 7C11.375 9.69238 9.19238 11.875 6.5 11.875Z" fill="white" fill-opacity="0.7"/>
<path d="M6.80449 3.95312H5.89043V7.60937L9.08966 9.52832L9.54669 8.77832L6.80449 7.15234V3.95312Z" fill="white" fill-opacity="0.7"/>
</svg>
