<svg width="44" height="45" viewBox="0 0 44 45" fill="none" xmlns="http://www.w3.org/2000/svg">
<path d="M10.6047 16.2269C10.6391 16.2183 10.6734 16.2183 10.7078 16.2097C10.6648 16.2183 10.6391 16.2269 10.6047 16.2269ZM29.3477 26.5738C28.4195 21.7871 24.2516 18.2035 19.25 18.2035C16.3281 18.2035 13.6555 19.2347 11.8164 21.5636C14.343 21.7527 16.6891 22.6894 18.4937 24.5027C19.8344 25.8519 20.7797 27.5019 21.2523 29.298H18.7859C17.6602 26.0668 14.6609 23.755 11 23.755C10.5617 23.755 9.94297 23.8066 9.47891 23.9011C5.55156 24.7089 2.75 27.9917 2.75 32.0652C2.75 36.6543 6.44531 40.3839 11 40.3839H28.875C32.6648 40.3839 35.75 37.2816 35.75 33.4574C35.7414 29.7878 32.9227 26.823 29.3477 26.5738Z" fill="#AFAFAF"/>
<path d="M9.66797 19.87C10.8367 18.3833 12.3063 17.2489 14.0336 16.5013C15.6148 15.8138 17.368 15.47 19.25 15.47C19.7742 15.47 20.2984 15.5044 20.8141 15.5646C20.2898 14.0091 20.0063 12.3333 20.0063 10.5974C20.0063 8.4833 20.4273 6.46377 21.1922 4.6333C13.9133 6.40361 8.50781 13.0208 8.50781 20.8927C8.50781 21.0302 8.50781 21.1677 8.51641 21.3052C8.525 21.3052 8.53359 21.2966 8.54219 21.2966L9.66797 19.87ZM35.8875 26.8653C37.0305 28.0856 37.8297 29.5724 38.2164 31.1708C39.6344 29.3317 40.6828 27.1833 41.25 24.8544C39.4281 25.6278 37.4258 26.0489 35.3289 26.0489H35.0195C35.3203 26.2981 35.6125 26.5731 35.8875 26.8653Z" fill="#FFD600"/>
</svg>
