<svg width="28" height="30" viewBox="0 0 28 30" fill="none" xmlns="http://www.w3.org/2000/svg">
    <path d="M13.1225 10.5791C13.3399 10.5071 13.5936 10.1475 13.6298 9.9317C13.6661 9.42818 13.5936 8.8887 13.5211 8.38519C12.9413 5.50797 11.5279 2.99039 9.93326 0.508789C8.5561 1.19213 7.36015 2.01933 6.67157 3.42198C6.01923 4.78866 5.69306 6.26324 5.5481 7.73781C5.5481 7.91764 5.58434 8.13343 5.69306 8.27729C7.25142 10.5071 10.5131 11.5501 13.1225 10.5791Z" fill="#1791A0"/>
    <path d="M0.764304 18.5631C-0.0329983 19.2105 -0.214203 20.0736 0.25693 20.9728C1.1992 22.7351 2.43139 24.3175 3.91727 25.6483C4.46089 26.1518 5.07698 26.5834 5.69308 27.0509C5.76556 26.5834 5.8018 26.1877 5.83804 25.8281C6.27294 23.2746 7.43265 21.0807 9.49838 19.4982C9.78831 19.2824 9.89704 19.0666 9.93328 18.707C9.96952 17.4841 10.187 16.2973 10.7306 15.1824C11.093 14.499 11.5641 13.9236 12.3252 13.6718C13.1225 13.4201 13.8111 13.8157 13.9923 14.6069C14.0285 14.8227 14.0647 15.0385 14.101 15.2183C14.3184 16.621 15.0433 17.1964 16.5654 17.1964C16.6741 16.1175 16.8191 15.0385 16.8915 13.9595C16.964 12.9885 17.3264 12.5929 18.2687 12.3771C18.8123 12.2692 19.3197 12.1613 19.8633 12.0174C23.4149 11.6578 27.5826 9.32002 27.9813 6.04717C28.09 5.11208 27.7276 4.53663 26.8216 4.28488C25.5169 3.96119 24.2122 3.67347 22.9438 3.31381C22.7263 3.24188 19.8633 3.02609 19.6821 2.84626C19.3197 2.52258 19.066 2.01906 18.6311 1.83924C17.4352 1.29976 16.1667 0.760276 14.8983 0.400623C13.6299 0.04097 12.3252 -0.174822 10.9843 0.184831C11.5279 1.15589 12.1077 2.05503 12.5789 3.02609C13.7023 5.18401 14.6446 7.41386 14.6084 9.93143C14.6084 10.7586 14.246 11.2621 13.4487 11.5139C11.9265 11.9815 10.4044 12.0174 8.88229 11.5858C7.54137 11.2262 6.4179 10.4709 5.43939 9.49984C5.40315 9.49984 5.33067 9.53581 5.29443 9.53581C5.29443 9.93143 5.29443 10.327 5.29443 10.7227C5.36691 12.3411 4.8233 13.7437 3.95351 15.0385C3.08373 16.4771 1.9965 17.5561 0.764304 18.5631ZM17.3989 3.85329C17.8338 3.85329 18.2325 4.21294 18.2325 4.68049C18.2325 5.11208 17.8701 5.5077 17.3989 5.5077C16.964 5.5077 16.5654 5.14804 16.5654 4.68049C16.6016 4.24891 16.964 3.85329 17.3989 3.85329Z" fill="#1791A0"/>
    <path d="M15.6232 28.5255C16.8916 28.058 18.9211 28.1659 20.2258 27.8062C20.9506 27.5904 25.4445 27.3027 25.8431 26.6194C25.9518 26.4396 25.8794 25.7562 25.9881 25.5764C26.6767 24.5334 26.6767 24.5334 25.8431 23.5983C25.1908 22.879 20.0808 22.1237 19.8634 21.1167C19.7184 20.2895 19.2473 19.714 18.5949 19.2825C17.6527 18.6351 16.5654 18.3474 15.442 18.2395C14.9708 18.2035 14.6084 17.9877 14.3185 17.5921C13.7749 16.9087 13.4849 16.1175 13.3762 15.2903C13.3037 14.6429 12.9776 14.4991 12.4702 14.8947C12.0353 15.2903 11.5642 15.7938 11.4192 16.3333C11.1293 17.3403 11.0568 18.4193 10.8756 19.4263C10.8393 19.6781 10.6944 20.0377 10.4769 20.1816C8.01255 21.9439 6.88908 24.3895 6.67163 27.2668C6.67163 27.4106 6.78035 27.6624 6.88908 27.6983C8.22999 28.2738 9.57091 28.9212 10.9481 29.3887C11.8903 29.7124 12.9051 29.8203 13.8836 30.0001C14.3185 30.0001 14.7534 30.0001 15.152 30.0001C15.152 29.7484 15.0795 29.4606 15.152 29.2089C15.2607 28.9571 15.4057 28.5975 15.6232 28.5255ZM17.0366 22.0518C17.4352 22.0518 17.7976 22.3755 17.7976 22.8071C17.7976 23.2027 17.4714 23.5623 17.0366 23.5623C16.6017 23.5623 16.2755 23.2386 16.2755 22.8071C16.2755 22.3755 16.6379 22.0518 17.0366 22.0518Z" fill="#1791A0"/>
</svg>