<svg width="16" height="17" viewBox="0 0 16 17" fill="none" xmlns="http://www.w3.org/2000/svg">
<path d="M13.6594 4.84616C13.4062 2.3656 11.4187 0.432617 9 0.432617C7.4 0.432617 5.99063 1.27706 5.14375 2.56682C4.88438 2.45467 4.6 2.39199 4.30312 2.39199C3.08125 2.39199 2.09063 3.52671 2.07188 4.81317C0.825 5.2321 0 6.51855 0 7.87099C0 9.52689 1.27188 10.9882 2.84063 10.9882H7.59375V6.33713C7.59375 6.09963 7.775 5.90831 8 5.90831C8.225 5.90831 8.40625 6.09963 8.40625 6.33713V10.9882H13.1594C14.7281 10.9882 16 9.52689 16 7.87099C16 6.39651 14.9906 5.09685 13.6594 4.84616ZM7.59375 13.7557L6.09688 12.1988C5.9375 12.0338 5.68125 12.0338 5.52187 12.2021C5.36562 12.3703 5.36562 12.6408 5.525 12.809L7.7125 15.085C7.79063 15.1642 7.89375 15.2071 7.99687 15.2071C8.05 15.2071 8.10312 15.1972 8.15312 15.1741C8.2 15.1543 8.24375 15.1213 8.28125 15.085L10.4688 12.809C10.6281 12.6441 10.6313 12.3703 10.4719 12.2021C10.3156 12.0338 10.0563 12.0305 9.89688 12.1988L8.40625 13.7557V10.9882H7.59375V13.7557Z" fill="#0AA6BD"/>
</svg>
