<svg width="26" height="27" viewBox="0 0 26 27" fill="none" xmlns="http://www.w3.org/2000/svg">
<path d="M21.6734 3.375H4.32656C3.73242 3.375 3.25 3.87598 3.25 4.49297V22.507C3.25 23.124 3.73242 23.625 4.32656 23.625H13V15.6094H10.6691V12.6562H13V10.473C13 7.85742 14.7469 6.43359 16.9965 6.43359C18.073 6.43359 19.2309 6.51797 19.5 6.55488V9.28652H17.7074C16.4836 9.28652 16.25 9.8877 16.25 10.7736V12.6562H19.1648L18.784 15.6094H16.25V23.625H21.6734C22.2676 23.625 22.75 23.124 22.75 22.507V4.49297C22.75 3.87598 22.2676 3.375 21.6734 3.375Z" fill="white"/>
</svg>
