<svg width="44" height="45" viewBox="0 0 44 45" fill="none" xmlns="http://www.w3.org/2000/svg">
<path d="M6.71179 18.1688C6.50554 18.1688 6.2907 18.1172 6.10164 18.0055C5.52586 17.6703 5.3282 16.9398 5.66336 16.3641C7.19304 13.7859 11.8423 7.76172 22.0001 7.76172C26.4001 7.76172 30.2587 8.93047 33.4641 11.2336C36.1024 13.1242 37.5805 15.2641 38.2852 16.2953C38.6634 16.8453 38.5173 17.5844 37.9673 17.9625C37.4173 18.332 36.661 18.1945 36.2829 17.6445C35.0024 15.7883 31.118 10.1508 22.0001 10.1508C13.0969 10.1508 9.07507 15.3414 7.76023 17.5672C7.53679 17.9625 7.13289 18.1688 6.71179 18.1688Z" fill="#5499AF"/>
<path d="M27.1133 41.7504C27.0102 41.7504 26.9156 41.7418 26.8125 41.7161C19.4477 39.8684 16.6977 32.4262 16.586 32.1168L16.5688 32.0481C16.5086 31.8333 15.0305 26.7286 17.2992 23.7379C18.3391 22.3715 19.9203 21.6754 22.0086 21.6754C23.9508 21.6754 25.3516 22.2856 26.3141 23.5489C27.1047 24.5801 27.4227 25.852 27.732 27.0809C28.3766 29.6333 28.8406 30.9739 31.5219 31.1114C32.6992 31.1715 33.4727 30.4754 33.911 29.8825C35.0969 28.2668 35.3031 25.6286 34.4094 23.3083C33.2578 20.3004 29.1844 14.6372 22 14.6372C18.932 14.6372 16.1133 15.634 13.8531 17.5075C11.9797 19.0629 10.493 21.2543 9.77971 23.5059C8.45627 27.6997 10.1922 34.2911 10.2094 34.3512C10.3813 34.9872 9.99455 35.6489 9.35002 35.8122C8.70549 35.984 8.03517 35.5973 7.8633 34.9614C7.78596 34.6606 5.92971 27.6309 7.45939 22.784C9.12658 17.5333 14.2656 12.2395 22 12.2395C25.575 12.2395 28.9524 13.4684 31.7711 15.7887C33.9539 17.5934 35.7414 20.0168 36.6695 22.4403C37.8555 25.534 37.5375 29.0059 35.8617 31.2747C34.7445 32.7872 33.1547 33.5778 31.393 33.4918C26.8039 33.2598 25.9789 30.02 25.3774 27.6567C24.7586 25.2333 24.3633 24.0645 22 24.0645C20.7024 24.0645 19.7914 24.4254 19.2242 25.1731C18.4508 26.1958 18.3906 27.7942 18.4766 28.9543C18.5625 30.1661 18.8203 31.1458 18.8805 31.3434C19.0695 31.8247 21.5274 37.9176 27.4141 39.3958C28.0672 39.559 28.4539 40.2122 28.2906 40.8481C28.1446 41.3895 27.6547 41.7504 27.1133 41.7504Z" fill="#5499AF"/>
<path d="M17.6602 41.1999C17.3336 41.1999 17.0157 41.071 16.775 40.8218C13.8274 37.6937 12.1602 34.196 11.5329 29.8218V29.796C11.1805 26.8999 11.6961 22.8007 14.2227 19.9819C16.0875 17.9022 18.7086 16.8452 22 16.8452C25.893 16.8452 28.9524 18.6757 30.8602 22.1304C32.2438 24.6397 32.5188 27.1405 32.5274 27.2437C32.5961 27.9054 32.1063 28.4897 31.4446 28.5585C30.7829 28.6272 30.1813 28.146 30.1125 27.4929C30.1125 27.4671 29.8719 25.3187 28.6946 23.2218C27.2164 20.5835 24.9649 19.2429 21.9914 19.2429C19.4219 19.2429 17.411 20.0249 16.0274 21.5718C14.0336 23.7976 13.6469 27.2265 13.9219 29.4952C14.4719 33.3624 15.9415 36.439 18.5368 39.189C18.9922 39.6702 18.9665 40.4351 18.4766 40.8819C18.2532 41.0882 17.9524 41.1999 17.6602 41.1999Z" fill="#5499AF"/>
<path d="M31.2383 37.7539C28.6602 37.7539 26.4688 37.032 24.7157 35.5969C21.1922 32.7266 20.7969 28.0516 20.7797 27.8539C20.7282 27.1922 21.2266 26.6164 21.8969 26.5648C22.5672 26.5133 23.143 27.0031 23.1946 27.6648C23.2032 27.7336 23.5555 31.5578 26.2712 33.7578C27.8782 35.0555 30.0266 35.5711 32.6735 35.2703C33.3352 35.193 33.9368 35.6656 34.0141 36.3273C34.0915 36.9891 33.6102 37.582 32.9485 37.6508C32.3641 37.7195 31.7883 37.7539 31.2383 37.7539ZM33.2751 5.87969C32.2696 5.21797 28.7032 3.25 22.0001 3.25C14.9618 3.25 11.3868 5.42422 10.5961 5.97422C10.5446 6.00859 10.493 6.04297 10.4501 6.08594C10.4415 6.09453 10.4329 6.09453 10.4329 6.09453C10.1836 6.31797 10.029 6.63594 10.029 6.98828C10.029 7.65 10.5704 8.18281 11.2407 8.18281C11.5071 8.18281 11.7477 8.09688 11.9454 7.95938L11.9368 7.96797C11.9711 7.94219 15.0563 5.64766 22.0001 5.64766C28.9438 5.64766 32.029 7.95078 32.0633 7.96797L32.0547 7.95938L32.0719 7.94219C32.2782 8.09687 32.5274 8.18281 32.8024 8.18281C33.4727 8.18281 34.0141 7.65 34.0141 6.98828C34.0141 6.48984 33.7133 6.06016 33.2751 5.87969Z" fill="#5499AF"/>
</svg>
