<svg width="14" height="14" viewBox="0 0 14 14" fill="none" xmlns="http://www.w3.org/2000/svg">
<path d="M12.4528 0.599976H1.54398C1.02238 0.599976 0.599976 1.01278 0.599976 1.52318V12.4768C0.599976 12.9872 1.02398 13.4 1.54398 13.4H12.4528C12.9744 13.4 13.4 12.9856 13.4 12.4768V1.52318C13.4 1.01278 12.9744 0.599976 12.4528 0.599976ZM4.39678 11.5072H2.49598V5.39838H4.39678V11.5072ZM3.44798 4.56318C2.83838 4.56318 2.34718 4.07038 2.34718 3.46238C2.34718 2.85438 2.83838 2.36158 3.44798 2.36158C4.05598 2.36158 4.54878 2.85438 4.54878 3.46238C4.54718 4.07038 4.05438 4.56318 3.44798 4.56318ZM11.5072 11.5072H9.60958V8.53597C9.60958 7.82718 9.59678 6.91678 8.62238 6.91678C7.63518 6.91678 7.48318 7.68958 7.48318 8.48638V11.5072H5.58718V5.39838H7.40638V6.23358H7.43198C7.68478 5.75358 8.30398 5.24638 9.22878 5.24638C11.1504 5.24638 11.5056 6.51198 11.5056 8.15678V11.5072H11.5072Z" fill="black"/>
</svg>