<svg width="14" height="14" viewBox="0 0 14 14" fill="none" xmlns="http://www.w3.org/2000/svg">
<path d="M13.8384 4.16307C13.8048 3.43027 13.688 2.93107 13.5184 2.49267C13.3424 2.03987 13.1072 1.65587 12.7248 1.27347C12.3424 0.891073 11.9584 0.655873 11.5056 0.479873C11.0672 0.310273 10.568 0.193473 9.8352 0.159873C9.1024 0.127873 8.8688 0.119873 6.99999 0.119873C5.1312 0.119873 4.89759 0.127873 4.1632 0.161473C3.4304 0.195073 2.9312 0.311873 2.49279 0.481473C2.04 0.657473 1.656 0.892673 1.2736 1.27507C0.891195 1.65747 0.655995 2.04147 0.479995 2.49427C0.310395 2.93267 0.193595 3.43187 0.159995 4.16467C0.127995 4.89747 0.119995 5.13107 0.119995 6.99987C0.119995 8.86867 0.127995 9.10227 0.161595 9.83667C0.195195 10.5695 0.311995 11.0687 0.481595 11.5071C0.657595 11.9599 0.892795 12.3439 1.2752 12.7263C1.6576 13.1087 2.0416 13.3439 2.4944 13.5199C2.9328 13.6895 3.43199 13.8063 4.16479 13.8399C4.89759 13.8719 5.1312 13.8799 6.99999 13.8799C8.8688 13.8799 9.1024 13.8719 9.8368 13.8383C10.5696 13.8047 11.0688 13.6879 11.5072 13.5183C11.96 13.3423 12.344 13.1071 12.7264 12.7247C13.1088 12.3423 13.344 11.9583 13.52 11.5055C13.6896 11.0671 13.8064 10.5679 13.84 9.83507C13.872 9.10227 13.88 8.86867 13.88 6.99987C13.88 5.13107 13.872 4.89747 13.8384 4.16307ZM12.6 9.78067C12.5696 10.4511 12.4576 10.8159 12.3632 11.0575C12.2384 11.3791 12.0896 11.6079 11.848 11.8479C11.608 12.0879 11.3776 12.2383 11.0576 12.3631C10.8144 12.4575 10.4512 12.5695 9.78079 12.5999C9.05599 12.6335 8.8384 12.6399 6.99999 12.6399C5.16159 12.6399 4.94559 12.6335 4.21919 12.5999C3.54879 12.5695 3.184 12.4575 2.94239 12.3631C2.6208 12.2383 2.392 12.0895 2.152 11.8479C1.912 11.6079 1.7616 11.3775 1.6368 11.0575C1.54239 10.8143 1.4304 10.4511 1.4 9.78067C1.3664 9.05587 1.36 8.83827 1.36 6.99987C1.36 5.16147 1.3664 4.94547 1.4 4.21907C1.4304 3.54867 1.54239 3.18387 1.6368 2.94227C1.7616 2.62067 1.9104 2.39187 2.152 2.15187C2.392 1.91187 2.6224 1.76147 2.94239 1.63667C3.1856 1.54227 3.54879 1.43027 4.21919 1.39987C4.94399 1.36627 5.16159 1.35987 6.99999 1.35987C8.8384 1.35987 9.05439 1.36627 9.78079 1.39987C10.4512 1.43027 10.816 1.54227 11.0576 1.63667C11.3792 1.76147 11.608 1.91027 11.848 2.15187C12.088 2.39187 12.2384 2.62227 12.3632 2.94227C12.4576 3.18547 12.5696 3.54867 12.6 4.21907C12.6336 4.94387 12.64 5.16147 12.64 6.99987C12.64 8.83827 12.6336 9.05427 12.6 9.78067Z" fill="black"/>
<path d="M6.99999 3.46716C5.04799 3.46716 3.46719 5.04956 3.46719 6.99996C3.46719 8.95196 5.04959 10.5328 6.99999 10.5328C8.95039 10.5328 10.5328 8.95196 10.5328 6.99996C10.5328 5.04796 8.95199 3.46716 6.99999 3.46716ZM6.99999 9.29276C5.73279 9.29276 4.70719 8.26556 4.70719 6.99996C4.70719 5.73436 5.73279 4.70716 6.99999 4.70716C8.26719 4.70716 9.29279 5.73276 9.29279 6.99996C9.29279 8.26716 8.26719 9.29276 6.99999 9.29276Z" fill="black"/>
<path d="M10.8614 4.13073C11.3052 4.02595 11.58 3.58128 11.4752 3.13753C11.3704 2.69378 10.9257 2.419 10.482 2.52378C10.0383 2.62856 9.76347 3.07323 9.86825 3.51698C9.97303 3.96072 10.4177 4.23551 10.8614 4.13073Z" fill="black"/>
</svg>