<svg width="20" height="21" viewBox="0 0 20 21" fill="none" xmlns="http://www.w3.org/2000/svg">
<path d="M18.1859 0.754883H1.91563C1.02695 0.754883 0.25 1.39473 0.25 2.27324V18.5791C0.25 19.4627 1.02695 20.2498 1.91563 20.2498H18.1809C19.0746 20.2498 19.7449 19.4576 19.7449 18.5791V2.27324C19.75 1.39473 19.0746 0.754883 18.1859 0.754883ZM6.29297 17.0049H3.5V8.32129H6.29297V17.0049ZM4.99297 7.00098H4.97266C4.07891 7.00098 3.5 6.33574 3.5 5.50293C3.5 4.65488 4.09414 4.00488 5.0082 4.00488C5.92227 4.00488 6.48086 4.6498 6.50117 5.50293C6.50117 6.33574 5.92227 7.00098 4.99297 7.00098ZM16.5 17.0049H13.707V12.2568C13.707 11.1193 13.3008 10.3424 12.2902 10.3424C11.5184 10.3424 11.0613 10.8654 10.8582 11.3732C10.782 11.5561 10.7617 11.8049 10.7617 12.0588V17.0049H7.96875V8.32129H10.7617V9.52988C11.168 8.95098 11.8027 8.11816 13.2805 8.11816C15.1137 8.11816 16.5 9.32676 16.5 11.9318V17.0049Z" fill="white"/>
</svg>
