<svg width="60" height="60" viewBox="0 0 60 60" fill="none" xmlns="http://www.w3.org/2000/svg">
<rect width="60" height="60" fill="white"/>
<path d="M43.1836 28.125H31.875V16.8164C31.875 15.7852 31.0312 14.9414 30 14.9414C28.9688 14.9414 28.125 15.7852 28.125 16.8164V28.125H16.8164C15.7852 28.125 14.9414 28.9688 14.9414 30C14.9414 30.5156 15.1523 30.9844 15.4922 31.3242C15.832 31.6641 16.3008 31.875 16.8164 31.875H28.125V43.1836C28.125 43.6992 28.3359 44.168 28.6758 44.5078C29.0156 44.8477 29.4844 45.0586 30 45.0586C31.0312 45.0586 31.875 44.2148 31.875 43.1836V31.875H43.1836C44.2148 31.875 45.0586 31.0312 45.0586 30C45.0586 28.9688 44.2148 28.125 43.1836 28.125Z" fill="black"/>
</svg>
