<svg width="16" height="16" viewBox="0 0 16 16" fill="none" xmlns="http://www.w3.org/2000/svg">
<path d="M15.3242 14.4141L11.1523 10.2031C11.9688 9.17969 12.4609 7.88281 12.4609 6.47266C12.4609 3.17188 9.78516 0.496094 6.48047 0.496094C3.17578 0.496094 0.5 3.17578 0.5 6.47656C0.5 9.77734 3.17578 12.4531 6.48047 12.4531C7.91016 12.4531 9.21875 11.9531 10.25 11.1172L14.3945 15.3008C14.5195 15.4336 14.6914 15.5 14.8594 15.5C15.0195 15.5 15.1797 15.4414 15.3008 15.3242C15.5586 15.0781 15.5664 14.6719 15.3242 14.4141ZM6.48047 11.168C5.22656 11.168 4.04688 10.6797 3.16016 9.79297C2.27344 8.90625 1.78516 7.72656 1.78516 6.47656C1.78516 5.22266 2.27344 4.04297 3.16016 3.16016C4.04688 2.27344 5.22656 1.78516 6.48047 1.78516C7.73438 1.78516 8.91406 2.27344 9.80078 3.16016C10.6875 4.04688 11.1758 5.22656 11.1758 6.47656C11.1758 7.73047 10.6875 8.91016 9.80078 9.79297C8.91406 10.6797 7.73438 11.168 6.48047 11.168Z" fill="black" fill-opacity="0.7"/>
</svg>