<svg width="17" height="14" viewBox="0 0 17 14" fill="none" xmlns="http://www.w3.org/2000/svg">
<path d="M14.688 2.9841L15.657 1.8321C15.946 1.5281 16.031 1.3041 16.065 1.1601C15.317 1.6081 14.603 1.7361 14.093 1.7521H13.889L13.77 1.6241C13.158 1.1121 12.393 0.824097 11.56 0.824097C9.77498 0.824097 8.32998 2.2001 8.32998 3.8641C8.32998 3.9921 8.32998 4.1041 8.34698 4.2161L8.43198 4.7121L7.88798 4.6961C4.57298 4.6161 1.90398 1.9761 1.44498 1.4961C0.730978 2.7441 1.12198 3.8801 1.58098 4.6001L2.44798 5.9601L1.07098 5.2561C1.08798 6.2641 1.51298 7.0641 2.29498 7.6401L2.95798 8.1201L2.26098 8.3921C2.70298 9.6401 3.65498 10.1361 4.40298 10.3281L5.33798 10.5681L4.52198 11.0961C3.09398 12.0401 1.27498 11.9761 0.526978 11.9121C2.15898 12.9681 4.06298 13.1921 5.42298 13.1921C6.42598 13.1921 7.15698 13.0641 7.34398 13.0321C14.552 11.4321 14.875 5.3841 14.858 4.1681V3.9761L15.011 3.8481C15.878 3.0801 16.252 2.6481 16.456 2.4241C16.371 2.4721 16.286 2.4881 16.167 2.5201L14.688 2.9841Z" fill="black"/>
</svg>