<svg width="24" height="21" viewBox="0 0 24 21" fill="none" xmlns="http://www.w3.org/2000/svg">
<path d="M23.9844 3.06055C23.1008 3.45156 22.1562 3.71563 21.1609 3.8375C22.1766 3.22813 22.9586 2.26328 23.3242 1.11562C22.3746 1.6793 21.3234 2.09062 20.2012 2.30898C19.3023 1.34922 18.0226 0.75 16.6109 0.75C13.8941 0.75 11.6953 2.95391 11.6953 5.6707C11.6953 6.05664 11.7359 6.43242 11.8223 6.79297C7.73436 6.58984 4.10858 4.62969 1.68632 1.64883C1.26483 2.375 1.02108 3.22305 1.02108 4.12187C1.02108 5.82812 1.89452 7.33633 3.21483 8.21992C2.40233 8.19961 1.64061 7.97617 0.980457 7.60547V7.66641C0.980457 10.0531 2.67655 12.0387 4.92616 12.4906C4.51483 12.6023 4.07811 12.6633 3.63124 12.6633C3.31639 12.6633 3.00663 12.6328 2.70702 12.5719C3.33163 14.527 5.1496 15.9488 7.30272 15.9895C5.62186 17.3098 3.49921 18.0969 1.19374 18.0969C0.797644 18.0969 0.406628 18.0715 0.0206909 18.0258C2.18905 19.4375 4.77382 20.25 7.54647 20.25C16.6008 20.25 21.5469 12.7496 21.5469 6.24453C21.5469 6.03125 21.5418 5.81797 21.5316 5.60977C22.4914 4.91406 23.3242 4.05078 23.9844 3.06055Z" fill="white"/>
</svg>
