<svg width="44" height="45" viewBox="0 0 44 45" fill="none" xmlns="http://www.w3.org/2000/svg">
<path d="M37.8383 14.3618C36.5493 12.3079 34.7188 10.6407 32.5618 9.54072C32.3985 9.46338 32.2266 9.42041 32.0461 9.42041C31.6165 9.42041 31.2297 9.66103 31.0321 10.0392C30.8946 10.3056 30.8688 10.6149 30.9633 10.8985C31.0579 11.1821 31.2555 11.4228 31.5305 11.5603C33.3266 12.4798 34.8477 13.8634 35.9219 15.5735C37.0219 17.3267 37.6063 19.3548 37.6063 21.4173V24.8978C37.6063 26.3759 37.3227 27.7681 36.7555 29.0228C36.2141 30.2259 35.4321 31.2829 34.4352 32.1681C32.4415 33.9298 29.7001 34.9095 26.7094 34.9095C23.7532 34.9095 22.9626 34.4626 22.2063 34.0329C21.5102 33.6376 20.7196 33.1907 18.9665 33.0876C16.2422 32.9157 14.0766 32.022 12.3321 30.3548C12.1172 30.1485 11.8422 30.0368 11.5501 30.0368C11.2407 30.0368 10.9485 30.1657 10.7336 30.3892C10.5274 30.604 10.4157 30.879 10.4157 31.1712C10.4157 31.4806 10.5446 31.7728 10.768 31.9876C12.9165 34.0415 15.5547 35.1415 18.829 35.3478C20.0665 35.4251 20.4961 35.6657 21.0977 36.0095C22.0688 36.5595 23.1688 37.1782 26.718 37.1782C30.293 37.1782 33.593 35.9837 36.0079 33.8095C37.2282 32.7095 38.1821 31.4032 38.8438 29.9251C39.5313 28.3782 39.8837 26.6938 39.8837 24.8978V21.4173C39.8751 18.9165 39.1704 16.4759 37.8383 14.3618Z" fill="#B6A6A6"/>
<path d="M24.4062 33.4145C25.1539 33.5348 25.8844 33.595 26.5891 33.595C27.9641 33.595 29.2703 33.3629 30.4562 32.9075C31.6508 32.4434 32.7336 31.7559 33.6789 30.8536C34.1344 30.4239 34.143 29.702 33.7133 29.2551C33.4984 29.0317 33.2062 28.9028 32.8969 28.9028C32.6047 28.9028 32.3211 29.0145 32.1148 29.2208C30.6453 30.6215 28.7805 31.3348 26.5719 31.3348C25.9875 31.3348 25.3859 31.2833 24.7672 31.1801C24.707 31.1715 24.6469 31.1629 24.5867 31.1629C24.0281 31.1629 23.5555 31.5583 23.4695 32.1082C23.4609 32.1684 23.4523 32.2286 23.4523 32.2887C23.4523 32.8559 23.8563 33.32 24.4062 33.4145ZM24.5867 31.6012H24.5953H24.5695H24.5867ZM19.1555 36.7403C15.7266 36.7403 12.8992 35.5887 10.3297 33.277C7.82891 31.0254 6.39375 28.0606 6.39375 25.1559V21.409C6.39375 19.3379 6.97813 17.3184 8.07812 15.5653C9.15234 13.8551 10.6734 12.4715 12.4695 11.552C12.7359 11.4145 12.9422 11.1825 13.0367 10.8903C13.1312 10.6067 13.1055 10.2973 12.968 10.0223C12.7703 9.64419 12.3836 9.40356 11.9539 9.40356C11.7734 9.40356 11.6016 9.44653 11.4383 9.52388C9.28125 10.6239 7.45078 12.2911 6.16172 14.345C4.82969 16.459 4.125 18.8997 4.125 21.3918V25.1387C4.125 28.6793 5.83516 32.2543 8.80859 34.9356C11.782 37.6168 15.168 38.9832 19.1555 38.9832C19.7828 38.9832 20.2898 38.4762 20.2898 37.8489C20.2812 37.2473 19.7742 36.7403 19.1555 36.7403Z" fill="#B6A6A6"/>
<path d="M29.9406 10.3914C30.0093 9.36875 30.8257 8.53516 31.8484 8.44922C32.2179 8.41484 32.5703 8.48359 32.8796 8.62109C33.1031 8.71563 33.3179 8.48359 33.2148 8.26875C32.9828 7.77891 32.6476 7.33203 32.2265 6.97109C31.5046 6.34375 30.5851 6 29.6312 6H14.3687C12.8304 6 11.4554 6.88516 10.8023 8.21719C10.6992 8.43203 10.9054 8.66406 11.1375 8.57812C11.421 8.46641 11.739 8.42344 12.0656 8.44922C13.0882 8.53516 13.9046 9.37734 13.9734 10.4C14.0421 11.5687 13.157 12.5484 12.014 12.6172C11.9367 12.6258 11.8593 12.6773 11.8335 12.7461C11.7992 12.8406 11.825 12.9437 11.9023 13.0039C12.5984 13.5367 13.4578 13.8375 14.3687 13.8375H29.6312C30.5679 13.8375 31.4531 13.5281 32.1578 12.9609C32.3039 12.8492 32.2179 12.6172 32.0375 12.6172H32.0289C30.8257 12.6172 29.8632 11.6117 29.9406 10.3914ZM28.0843 9.50625C28.3851 10.8641 27.1648 12.0844 25.807 11.7836C25.0851 11.6203 24.5007 11.0445 24.346 10.3227C24.0453 8.96484 25.2656 7.74453 26.6234 8.04531C27.3453 8.20859 27.9296 8.78438 28.0843 9.50625Z" fill="#007E91"/>
</svg>
