<svg width="26" height="27" viewBox="0 0 26 27" fill="none" xmlns="http://www.w3.org/2000/svg">
<g clip-path="url(#clip0)">
<path d="M25.8274 8.05527C25.8274 5.77012 24.1465 3.93184 22.0695 3.93184C19.2563 3.7998 16.3871 3.74902 13.457 3.74902H12.543C9.61798 3.74902 6.74376 3.7998 3.93048 3.93184C1.85861 3.93184 0.177746 5.78027 0.177746 8.06543C0.0507931 9.87324 -0.00506628 11.6811 1.18406e-05 13.4889C-0.00506628 15.2967 0.0507931 17.1045 0.172668 18.9174C0.172668 21.2025 1.85353 23.0561 3.9254 23.0561C6.88087 23.1932 9.91251 23.2541 12.9949 23.249C16.0824 23.2592 19.1039 23.1982 22.0645 23.0561C24.1414 23.0561 25.8223 21.2025 25.8223 18.9174C25.9442 17.1045 26 15.2967 25.9949 13.4838C26.0051 11.676 25.9492 9.86816 25.8274 8.05527ZM10.5117 18.4705V8.49199L17.875 13.4787L10.5117 18.4705Z" fill="white"/>
</g>
<defs>
<clipPath id="clip0">
<rect width="26" height="26" fill="white" transform="matrix(1 0 0 -1 0 26.5)"/>
</clipPath>
</defs>
</svg>
